<mxfile host="Electron" modified="2023-11-02T01:36:01.912Z" agent="Mozilla/5.0 (Windows NT 10.0; Win64; x64) AppleWebKit/537.36 (KHTML, like Gecko) draw.io/21.5.0 Chrome/112.0.5615.204 Electron/24.5.1 Safari/537.36" etag="gF1StKqjdnrF3tIb1PAA" version="21.5.0" type="device">
  <diagram name="Page-1" id="cxeBOrwpK8nN50zcZmI6">
    <mxGraphModel dx="2035" dy="2349" grid="0" gridSize="10" guides="1" tooltips="1" connect="1" arrows="1" fold="1" page="1" pageScale="1" pageWidth="850" pageHeight="1100" math="0" shadow="0">
      <root>
        <mxCell id="0" />
        <mxCell id="1" parent="0" />
        <mxCell id="A5i7G-RLf4WkhE8potxu-13" value="&lt;h1&gt;task_process_can_data&lt;/h1&gt;" style="text;html=1;align=center;verticalAlign=middle;resizable=0;points=[];autosize=1;strokeColor=none;fillColor=none;fontSize=16;fontFamily=Helvetica;" parent="1" vertex="1">
          <mxGeometry x="-622" y="-1085" width="379" height="93" as="geometry" />
        </mxCell>
        <mxCell id="TCQq_0vxRrrU67py94-t-107" style="edgeStyle=orthogonalEdgeStyle;rounded=0;orthogonalLoop=1;jettySize=auto;html=1;entryX=0.5;entryY=0;entryDx=0;entryDy=0;" edge="1" parent="1" source="2nFFmFus7sa76uc8o4wt-1" target="TCQq_0vxRrrU67py94-t-4">
          <mxGeometry relative="1" as="geometry" />
        </mxCell>
        <UserObject label="&lt;div style=&quot;&quot;&gt;Start&lt;/div&gt;" Function="EN_DIO_Error_T DIO_init(uint8_t pinNumber, EN_DIO_PORT_T portNumber, EN_DIO_DIRECTION_T direction);" tags="Flowchart" id="2nFFmFus7sa76uc8o4wt-1">
          <mxCell style="verticalAlign=middle;align=center;overflow=width;vsdxID=30;fillColor=#dae8fc;shape=stencil(tVLREoIgEPwaHnEQxsl3s/9gEpSJwDko7e+DsEkze2l627vdu5uFRaxyHe8FosR5sCcxqMZ3iO0Rpcp0ApQPCLEasUpaEC3Yi2lS3fOojOhsr3HDmObyMtsVcYqS29Qh5FEfklwrM5OXeUa/yjkcAwfr7TDpiyTfXvjkMR+Vw2A998qaBac5tAKHU1hq3i4oNwjRr9ofvayt/+Rk+yX/4iWA159KpXWKxJx/z0Bopfyw+g4=);strokeColor=#6c8ebf;spacingTop=-1;spacingBottom=-1;spacingLeft=-1;spacingRight=-1;points=[[0.5,1,0],[0.5,0,0],[0,0.5,0],[1,0.5,0]];labelBackgroundColor=none;rounded=1;html=1;whiteSpace=wrap;fontFamily=Helvetica;" parent="1" vertex="1">
            <mxGeometry x="-779.69" y="-975" width="101" height="38" as="geometry" />
          </mxCell>
        </UserObject>
        <mxCell id="TCQq_0vxRrrU67py94-t-106" style="edgeStyle=orthogonalEdgeStyle;rounded=0;orthogonalLoop=1;jettySize=auto;html=1;entryX=0.5;entryY=0;entryDx=0;entryDy=0;" edge="1" parent="1" source="TCQq_0vxRrrU67py94-t-4" target="TCQq_0vxRrrU67py94-t-6">
          <mxGeometry relative="1" as="geometry" />
        </mxCell>
        <mxCell id="TCQq_0vxRrrU67py94-t-4" value="Init local variable&amp;nbsp;&lt;br&gt;&lt;b&gt;st_l_can_queue_item&lt;/b&gt;" style="rounded=0;whiteSpace=wrap;html=1;fontSize=12;fillColor=#d5e8d4;strokeColor=#82b366;fontFamily=Helvetica;" vertex="1" parent="1">
          <mxGeometry x="-809.315" y="-891" width="160.25" height="44" as="geometry" />
        </mxCell>
        <mxCell id="TCQq_0vxRrrU67py94-t-105" style="edgeStyle=orthogonalEdgeStyle;rounded=0;orthogonalLoop=1;jettySize=auto;html=1;entryX=0.5;entryY=0;entryDx=0;entryDy=0;" edge="1" parent="1" source="TCQq_0vxRrrU67py94-t-6" target="TCQq_0vxRrrU67py94-t-8">
          <mxGeometry relative="1" as="geometry" />
        </mxCell>
        <mxCell id="TCQq_0vxRrrU67py94-t-6" value="Init local variable&lt;br&gt;&lt;b&gt;u8_l_uart_tx_data&lt;/b&gt;" style="rounded=0;whiteSpace=wrap;html=1;fontSize=12;fillColor=#d5e8d4;strokeColor=#82b366;fontFamily=Helvetica;" vertex="1" parent="1">
          <mxGeometry x="-820.69" y="-814" width="183" height="44" as="geometry" />
        </mxCell>
        <mxCell id="TCQq_0vxRrrU67py94-t-7" style="edgeStyle=orthogonalEdgeStyle;rounded=0;orthogonalLoop=1;jettySize=auto;html=1;entryX=0.5;entryY=0;entryDx=0;entryDy=0;" edge="1" parent="1" source="TCQq_0vxRrrU67py94-t-8" target="TCQq_0vxRrrU67py94-t-10">
          <mxGeometry relative="1" as="geometry" />
        </mxCell>
        <mxCell id="TCQq_0vxRrrU67py94-t-8" value="" style="rhombus;whiteSpace=wrap;html=1;" vertex="1" parent="1">
          <mxGeometry x="-751.69" y="-732" width="45" height="45" as="geometry" />
        </mxCell>
        <mxCell id="TCQq_0vxRrrU67py94-t-88" style="edgeStyle=orthogonalEdgeStyle;rounded=0;orthogonalLoop=1;jettySize=auto;html=1;entryX=0;entryY=0.5;entryDx=0;entryDy=0;entryPerimeter=0;" edge="1" parent="1" source="TCQq_0vxRrrU67py94-t-10" target="TCQq_0vxRrrU67py94-t-23">
          <mxGeometry relative="1" as="geometry" />
        </mxCell>
        <mxCell id="TCQq_0vxRrrU67py94-t-10" value="Dequeue data from&amp;nbsp;&lt;b&gt;canProcessQueue&lt;/b&gt;&amp;nbsp;&lt;span style=&quot;background-color: initial;&quot;&gt;into&lt;br&gt;&lt;/span&gt;&lt;span style=&quot;border-color: var(--border-color);&quot;&gt;&lt;b&gt;st_l_can_queue_item&lt;/b&gt;&lt;br&gt;&lt;i style=&quot;&quot;&gt;(task blocks here if no data)&lt;/i&gt;&lt;br&gt;&lt;/span&gt;" style="rounded=0;whiteSpace=wrap;html=1;fontSize=12;fillColor=#d5e8d4;strokeColor=#82b366;fontFamily=Helvetica;" vertex="1" parent="1">
          <mxGeometry x="-822" y="-662.5" width="185.62" height="70.5" as="geometry" />
        </mxCell>
        <mxCell id="TCQq_0vxRrrU67py94-t-99" style="edgeStyle=orthogonalEdgeStyle;rounded=0;orthogonalLoop=1;jettySize=auto;html=1;entryX=1;entryY=0.5;entryDx=0;entryDy=0;" edge="1" parent="1" source="TCQq_0vxRrrU67py94-t-13" target="TCQq_0vxRrrU67py94-t-70">
          <mxGeometry relative="1" as="geometry">
            <Array as="points">
              <mxPoint x="-144" y="-195" />
            </Array>
          </mxGeometry>
        </mxCell>
        <mxCell id="TCQq_0vxRrrU67py94-t-13" value="Enqueue&amp;nbsp;&lt;span style=&quot;border-color: var(--border-color);&quot;&gt;&lt;b style=&quot;border-color: var(--border-color);&quot;&gt;u8_l_uart_tx_data&lt;br&gt;&lt;/b&gt;into &lt;b&gt;uartTransmitQueue&lt;/b&gt;&lt;br&gt;&lt;/span&gt;" style="rounded=0;whiteSpace=wrap;html=1;fontSize=12;fillColor=#d5e8d4;strokeColor=#82b366;fontFamily=Helvetica;" vertex="1" parent="1">
          <mxGeometry x="-237.1199999999999" y="-275.5" width="185.62" height="44" as="geometry" />
        </mxCell>
        <mxCell id="TCQq_0vxRrrU67py94-t-22" style="edgeStyle=orthogonalEdgeStyle;rounded=0;orthogonalLoop=1;jettySize=auto;html=1;entryX=0.5;entryY=0;entryDx=0;entryDy=0;fontFamily=Helvetica;" edge="1" parent="1" source="TCQq_0vxRrrU67py94-t-23" target="TCQq_0vxRrrU67py94-t-26">
          <mxGeometry relative="1" as="geometry" />
        </mxCell>
        <UserObject label="&lt;div style=&quot;&quot;&gt;&lt;font style=&quot;font-size: 11.29px; direction: ltr; letter-spacing: 0px; line-height: 120%; opacity: 1;&quot;&gt;Switch &lt;br&gt;`&lt;/font&gt;&lt;font style=&quot;direction: ltr; letter-spacing: 0px; line-height: 120%; opacity: 1;&quot;&gt;&lt;b&gt;&lt;i&gt;st_l_can_queue_item-item_id&lt;/i&gt;&lt;/b&gt;&lt;/font&gt;&lt;font style=&quot;direction: ltr; letter-spacing: 0px; line-height: 120%; opacity: 1;&quot;&gt;&lt;span style=&quot;font-size: 11.29px;&quot;&gt;`&lt;/span&gt;&lt;br&gt;&lt;/font&gt;&lt;/div&gt;" Function="EN_DIO_Error_T DIO_port_write(EN_DIO_PORT_T portNumber, uint8_t byte, uint8_t mask)" tags="Flowchart" id="TCQq_0vxRrrU67py94-t-23">
          <mxCell style="verticalAlign=middle;align=center;overflow=width;vsdxID=309;fillColor=#d5e8d4;shape=stencil(nZBLDoAgDERP0z3SIyjew0SURgSD+Lu9kMZoXLhwN9O+tukAlrNpJg1SzDH4QW/URgNYgZTkjA4UkwJUgGXng+6DX1zLfmoymdXo17xh5zmRJ6Q42BWCfc2oJfdAr+Yv+AP9Cb7OJ3H/2JG1HNGz/84klThPVCc=);strokeColor=#82b366;spacingTop=-1;spacingBottom=-1;spacingLeft=-1;spacingRight=-1;points=[[0,0.5,0],[1,0.5,0],[0.5,1,0],[0.5,0,0]];labelBackgroundColor=none;rounded=1;html=1;whiteSpace=wrap;fontFamily=Helvetica;" vertex="1" parent="1">
            <mxGeometry x="-577" y="-954" width="197" height="38" as="geometry" />
          </mxCell>
        </UserObject>
        <mxCell id="TCQq_0vxRrrU67py94-t-24" value="True" style="edgeStyle=none;curved=1;rounded=0;orthogonalLoop=1;jettySize=auto;html=1;entryX=0;entryY=0.5;entryDx=0;entryDy=0;fontSize=12;startSize=8;endSize=8;fontFamily=Helvetica;" edge="1" parent="1" source="TCQq_0vxRrrU67py94-t-26" target="TCQq_0vxRrrU67py94-t-73">
          <mxGeometry relative="1" as="geometry">
            <mxPoint x="-305" y="-845" as="targetPoint" />
          </mxGeometry>
        </mxCell>
        <mxCell id="TCQq_0vxRrrU67py94-t-94" value="False" style="edgeStyle=orthogonalEdgeStyle;rounded=0;orthogonalLoop=1;jettySize=auto;html=1;fontSize=12;" edge="1" parent="1" source="TCQq_0vxRrrU67py94-t-26" target="TCQq_0vxRrrU67py94-t-74">
          <mxGeometry relative="1" as="geometry" />
        </mxCell>
        <mxCell id="TCQq_0vxRrrU67py94-t-26" value="case `&lt;b&gt;&lt;i&gt;APP_CAN_ID_THROTTLE&lt;/i&gt;&lt;/b&gt;&lt;span style=&quot;background-color: initial;&quot;&gt;`&lt;/span&gt;" style="rhombus;whiteSpace=wrap;html=1;fontSize=12;fontFamily=Helvetica;fillColor=#fff2cc;strokeColor=#d6b656;" vertex="1" parent="1">
          <mxGeometry x="-583" y="-884" width="209" height="76" as="geometry" />
        </mxCell>
        <mxCell id="TCQq_0vxRrrU67py94-t-103" style="edgeStyle=orthogonalEdgeStyle;rounded=0;orthogonalLoop=1;jettySize=auto;html=1;entryX=0;entryY=0.5;entryDx=0;entryDy=0;" edge="1" parent="1" source="TCQq_0vxRrrU67py94-t-70" target="TCQq_0vxRrrU67py94-t-8">
          <mxGeometry relative="1" as="geometry">
            <Array as="points">
              <mxPoint x="-839" y="-195" />
              <mxPoint x="-839" y="-709" />
            </Array>
          </mxGeometry>
        </mxCell>
        <mxCell id="TCQq_0vxRrrU67py94-t-70" value="" style="rhombus;whiteSpace=wrap;html=1;fontFamily=Helvetica;" vertex="1" parent="1">
          <mxGeometry x="-489.5" y="-205.99999999999997" width="22" height="22" as="geometry" />
        </mxCell>
        <mxCell id="TCQq_0vxRrrU67py94-t-89" style="edgeStyle=orthogonalEdgeStyle;rounded=0;orthogonalLoop=1;jettySize=auto;html=1;entryX=0.5;entryY=0;entryDx=0;entryDy=0;" edge="1" parent="1" source="TCQq_0vxRrrU67py94-t-73" target="TCQq_0vxRrrU67py94-t-81">
          <mxGeometry relative="1" as="geometry" />
        </mxCell>
        <mxCell id="TCQq_0vxRrrU67py94-t-73" value="calc_throttle(...)" style="shape=process;whiteSpace=wrap;html=1;backgroundOutline=1;fillColor=#f8cecc;strokeColor=#b85450;" vertex="1" parent="1">
          <mxGeometry x="-321.5" y="-876" width="146" height="60" as="geometry" />
        </mxCell>
        <mxCell id="TCQq_0vxRrrU67py94-t-85" value="True" style="edgeStyle=orthogonalEdgeStyle;rounded=0;orthogonalLoop=1;jettySize=auto;html=1;fontSize=12;" edge="1" parent="1" source="TCQq_0vxRrrU67py94-t-74" target="TCQq_0vxRrrU67py94-t-77">
          <mxGeometry relative="1" as="geometry" />
        </mxCell>
        <mxCell id="TCQq_0vxRrrU67py94-t-95" value="False" style="edgeStyle=orthogonalEdgeStyle;rounded=0;orthogonalLoop=1;jettySize=auto;html=1;horizontal=1;fontSize=12;" edge="1" parent="1" source="TCQq_0vxRrrU67py94-t-74" target="TCQq_0vxRrrU67py94-t-76">
          <mxGeometry relative="1" as="geometry" />
        </mxCell>
        <mxCell id="TCQq_0vxRrrU67py94-t-74" value="case `&lt;b&gt;&lt;i&gt;APP_CAN_ID_STEERING&lt;/i&gt;&lt;/b&gt;&lt;span style=&quot;background-color: initial;&quot;&gt;`&lt;/span&gt;" style="rhombus;whiteSpace=wrap;html=1;fontSize=12;fontFamily=Helvetica;fillColor=#fff2cc;strokeColor=#d6b656;" vertex="1" parent="1">
          <mxGeometry x="-583" y="-787" width="209" height="76" as="geometry" />
        </mxCell>
        <mxCell id="TCQq_0vxRrrU67py94-t-87" value="True" style="edgeStyle=orthogonalEdgeStyle;rounded=0;orthogonalLoop=1;jettySize=auto;html=1;fontSize=12;" edge="1" parent="1" source="TCQq_0vxRrrU67py94-t-75" target="TCQq_0vxRrrU67py94-t-78">
          <mxGeometry relative="1" as="geometry" />
        </mxCell>
        <mxCell id="TCQq_0vxRrrU67py94-t-102" value="False" style="edgeStyle=orthogonalEdgeStyle;rounded=0;orthogonalLoop=1;jettySize=auto;html=1;entryX=0.5;entryY=0;entryDx=0;entryDy=0;fontSize=12;" edge="1" parent="1" source="TCQq_0vxRrrU67py94-t-75" target="TCQq_0vxRrrU67py94-t-70">
          <mxGeometry relative="1" as="geometry" />
        </mxCell>
        <mxCell id="TCQq_0vxRrrU67py94-t-75" value="case `&lt;b&gt;&lt;i&gt;APP_CAN_ID_LIGHTS&lt;/i&gt;&lt;/b&gt;&lt;span style=&quot;background-color: initial;&quot;&gt;`&lt;/span&gt;" style="rhombus;whiteSpace=wrap;html=1;fontSize=12;fontFamily=Helvetica;fillColor=#fff2cc;strokeColor=#d6b656;" vertex="1" parent="1">
          <mxGeometry x="-583" y="-541" width="209" height="76" as="geometry" />
        </mxCell>
        <mxCell id="TCQq_0vxRrrU67py94-t-86" value="True" style="edgeStyle=orthogonalEdgeStyle;rounded=0;orthogonalLoop=1;jettySize=auto;html=1;" edge="1" parent="1" source="TCQq_0vxRrrU67py94-t-76" target="TCQq_0vxRrrU67py94-t-79">
          <mxGeometry relative="1" as="geometry" />
        </mxCell>
        <mxCell id="TCQq_0vxRrrU67py94-t-96" value="False" style="edgeStyle=orthogonalEdgeStyle;rounded=0;orthogonalLoop=1;jettySize=auto;html=1;fontSize=12;" edge="1" parent="1" source="TCQq_0vxRrrU67py94-t-76" target="TCQq_0vxRrrU67py94-t-75">
          <mxGeometry relative="1" as="geometry" />
        </mxCell>
        <mxCell id="TCQq_0vxRrrU67py94-t-76" value="case `&lt;b&gt;&lt;i&gt;APP_CAN_ID_TRANSMISSION&lt;/i&gt;&lt;/b&gt;&lt;span style=&quot;background-color: initial;&quot;&gt;`&lt;/span&gt;" style="rhombus;whiteSpace=wrap;html=1;fontSize=12;fontFamily=Helvetica;fillColor=#fff2cc;strokeColor=#d6b656;" vertex="1" parent="1">
          <mxGeometry x="-583" y="-686" width="209" height="101" as="geometry" />
        </mxCell>
        <mxCell id="TCQq_0vxRrrU67py94-t-90" style="edgeStyle=orthogonalEdgeStyle;rounded=0;orthogonalLoop=1;jettySize=auto;html=1;entryX=0.5;entryY=0;entryDx=0;entryDy=0;" edge="1" parent="1" source="TCQq_0vxRrrU67py94-t-77" target="TCQq_0vxRrrU67py94-t-81">
          <mxGeometry relative="1" as="geometry" />
        </mxCell>
        <mxCell id="TCQq_0vxRrrU67py94-t-77" value="map_steering(...)" style="shape=process;whiteSpace=wrap;html=1;backgroundOutline=1;fillColor=#f8cecc;strokeColor=#b85450;" vertex="1" parent="1">
          <mxGeometry x="-321.5" y="-779" width="146" height="60" as="geometry" />
        </mxCell>
        <mxCell id="TCQq_0vxRrrU67py94-t-100" style="edgeStyle=orthogonalEdgeStyle;rounded=0;orthogonalLoop=1;jettySize=auto;html=1;entryX=1;entryY=0.5;entryDx=0;entryDy=0;" edge="1" parent="1" source="TCQq_0vxRrrU67py94-t-78" target="TCQq_0vxRrrU67py94-t-70">
          <mxGeometry relative="1" as="geometry">
            <Array as="points">
              <mxPoint x="-300" y="-195" />
            </Array>
          </mxGeometry>
        </mxCell>
        <mxCell id="TCQq_0vxRrrU67py94-t-78" value="detect changed lights and queue actions" style="shape=process;whiteSpace=wrap;html=1;backgroundOutline=1;fillColor=#f8cecc;strokeColor=#b85450;" vertex="1" parent="1">
          <mxGeometry x="-321.5" y="-533" width="146" height="60" as="geometry" />
        </mxCell>
        <mxCell id="TCQq_0vxRrrU67py94-t-91" style="edgeStyle=orthogonalEdgeStyle;rounded=0;orthogonalLoop=1;jettySize=auto;html=1;entryX=0.5;entryY=0;entryDx=0;entryDy=0;" edge="1" parent="1" source="TCQq_0vxRrrU67py94-t-79" target="TCQq_0vxRrrU67py94-t-81">
          <mxGeometry relative="1" as="geometry" />
        </mxCell>
        <mxCell id="TCQq_0vxRrrU67py94-t-79" value="map_transmission(...)" style="shape=process;whiteSpace=wrap;html=1;backgroundOutline=1;fillColor=#f8cecc;strokeColor=#b85450;" vertex="1" parent="1">
          <mxGeometry x="-323" y="-665.5" width="149" height="60" as="geometry" />
        </mxCell>
        <mxCell id="TCQq_0vxRrrU67py94-t-92" value="True" style="edgeStyle=orthogonalEdgeStyle;rounded=0;orthogonalLoop=1;jettySize=auto;html=1;entryX=0.5;entryY=0;entryDx=0;entryDy=0;fontSize=12;" edge="1" parent="1" source="TCQq_0vxRrrU67py94-t-81" target="TCQq_0vxRrrU67py94-t-82">
          <mxGeometry relative="1" as="geometry" />
        </mxCell>
        <mxCell id="TCQq_0vxRrrU67py94-t-97" style="edgeStyle=orthogonalEdgeStyle;rounded=0;orthogonalLoop=1;jettySize=auto;html=1;entryX=1;entryY=0.5;entryDx=0;entryDy=0;" edge="1" parent="1" source="TCQq_0vxRrrU67py94-t-81" target="TCQq_0vxRrrU67py94-t-70">
          <mxGeometry relative="1" as="geometry">
            <Array as="points">
              <mxPoint x="-19" y="-499" />
              <mxPoint x="-19" y="-195" />
            </Array>
          </mxGeometry>
        </mxCell>
        <mxCell id="TCQq_0vxRrrU67py94-t-81" value="valid header?" style="rhombus;whiteSpace=wrap;html=1;fillColor=#fff2cc;strokeColor=#d6b656;" vertex="1" parent="1">
          <mxGeometry x="-145.9999999999999" y="-541" width="90" height="84" as="geometry" />
        </mxCell>
        <mxCell id="TCQq_0vxRrrU67py94-t-93" value="True" style="edgeStyle=orthogonalEdgeStyle;rounded=0;orthogonalLoop=1;jettySize=auto;html=1;fontSize=12;" edge="1" parent="1" source="TCQq_0vxRrrU67py94-t-82" target="TCQq_0vxRrrU67py94-t-13">
          <mxGeometry relative="1" as="geometry" />
        </mxCell>
        <mxCell id="TCQq_0vxRrrU67py94-t-98" value="False" style="edgeStyle=orthogonalEdgeStyle;rounded=0;orthogonalLoop=1;jettySize=auto;html=1;entryX=1;entryY=0.5;entryDx=0;entryDy=0;fontSize=12;" edge="1" parent="1" source="TCQq_0vxRrrU67py94-t-82" target="TCQq_0vxRrrU67py94-t-70">
          <mxGeometry relative="1" as="geometry">
            <Array as="points">
              <mxPoint x="-19" y="-384" />
              <mxPoint x="-19" y="-195" />
            </Array>
          </mxGeometry>
        </mxCell>
        <mxCell id="TCQq_0vxRrrU67py94-t-82" value="duplicate data?" style="rhombus;whiteSpace=wrap;html=1;fillColor=#fff2cc;strokeColor=#d6b656;" vertex="1" parent="1">
          <mxGeometry x="-150.4999999999999" y="-430.5" width="99" height="92.4" as="geometry" />
        </mxCell>
        <mxCell id="TCQq_0vxRrrU67py94-t-83" value="data already matches last sent state" style="shape=note;whiteSpace=wrap;html=1;backgroundOutline=1;fontColor=#000000;darkOpacity=0.05;fillColor=#FFF9B2;strokeColor=none;fillStyle=solid;direction=west;gradientDirection=north;gradientColor=#FFF2A1;shadow=1;size=20;pointerEvents=1;fontFamily=Helvetica;" vertex="1" parent="1">
          <mxGeometry x="-279" y="-419" width="112" height="62.5" as="geometry" />
        </mxCell>
      </root>
    </mxGraphModel>
  </diagram>
</mxfile>
